<svg width="65" height="65" viewBox="0 0 65 65" fill="none" xmlns="http://www.w3.org/2000/svg">
<path id="Vector" d="M52.8935 58.567L46.4605 29.2612L58.9691 16.7526C64.3299 11.3918 66.1168 4.24399 64.3299 0.670103C60.756 -1.11684 53.6082 0.670103 48.2474 6.03093L35.7388 18.5395L6.43299 12.1065C4.64605 11.7491 3.2165 12.4639 2.50172 13.8935L1.42955 15.6804C0.714777 17.4674 1.07217 19.2543 2.50172 20.3265L21.4433 32.8351L14.2955 43.5567H3.57388L0 47.1306L10.7216 54.2784L17.8694 65L21.4433 61.4261V50.7045L32.1649 43.5567L44.6735 62.4983C45.7457 63.9278 47.5326 64.2852 49.3196 63.5704L51.1065 62.8557C52.5361 61.7835 53.2509 60.354 52.8935 58.567Z" fill="white"/>
</svg>
