<svg width="100" height="75" viewBox="0 0 100 75" fill="none" xmlns="http://www.w3.org/2000/svg">
<g id="Group 3611">
<g id="Icon">
<path d="M21.2759 50.4635C14.8067 50.4635 9.39903 55.1281 8.07093 61.3593C7.72555 62.9798 6.41547 64.3383 4.75862 64.3383H4C2.34315 64.3383 1 62.9951 1 61.3383V4.90161C1 3.24476 2.34315 1.90161 4 1.90161H57.4426C59.0995 1.90161 60.4426 3.24476 60.4426 4.90161V61.3383C60.4426 62.9951 59.0995 64.3383 57.4426 64.3383H37.7931C36.1362 64.3383 34.8262 62.9798 34.4808 61.3593C33.1527 55.1281 27.745 50.4635 21.2759 50.4635Z" fill="white"/>
<path d="M82.1034 50.4635C75.1943 50.4635 69.4959 55.7842 68.6851 62.6515C68.5757 63.5783 67.8297 64.3383 66.8966 64.3383C65.9634 64.3383 65.2069 63.5818 65.2069 62.6486V22.2451C65.2069 20.5883 66.55 19.2451 68.2069 19.2451H80.8378C81.647 19.2451 82.4219 19.572 82.9866 20.1517L98.1488 35.715C98.6946 36.2751 99 37.0263 99 37.8084V62.6486C99 63.5818 98.2435 64.3383 97.3103 64.3383C96.3772 64.3383 95.6312 63.5783 95.5218 62.6515C94.711 55.7842 89.0126 50.4635 82.1034 50.4635Z" fill="white"/>
<path d="M21.2759 50.4635C14.8067 50.4635 9.39903 55.1281 8.07093 61.3593C7.72555 62.9798 6.41547 64.3383 4.75862 64.3383H4C2.34315 64.3383 1 62.9951 1 61.3383V4.90161C1 3.24476 2.34315 1.90161 4 1.90161H57.4426C59.0995 1.90161 60.4426 3.24476 60.4426 4.90161V61.3383C60.4426 62.9951 59.0995 64.3383 57.4426 64.3383H37.7931C36.1362 64.3383 34.8262 62.9798 34.4808 61.3593C33.1527 55.1281 27.745 50.4635 21.2759 50.4635Z" stroke="white" stroke-width="2" stroke-linecap="round" stroke-linejoin="round"/>
<path d="M82.1034 50.4635C75.1943 50.4635 69.4959 55.7842 68.6851 62.6515C68.5757 63.5783 67.8297 64.3383 66.8966 64.3383C65.9634 64.3383 65.2069 63.5818 65.2069 62.6486V22.2451C65.2069 20.5883 66.55 19.2451 68.2069 19.2451H80.8378C81.647 19.2451 82.4219 19.572 82.9866 20.1517L98.1488 35.715C98.6946 36.2751 99 37.0263 99 37.8084V62.6486C99 63.5818 98.2435 64.3383 97.3103 64.3383C96.3772 64.3383 95.6312 63.5783 95.5218 62.6515C94.711 55.7842 89.0126 50.4635 82.1034 50.4635Z" stroke="white" stroke-width="2" stroke-linecap="round" stroke-linejoin="round"/>
</g>
<circle id="Ellipse 3" cx="21.4837" cy="64.1557" r="10.8443" fill="white"/>
<circle id="Ellipse 4" cx="81.7295" cy="64.1557" r="10.8443" fill="white"/>
</g>
</svg>
