<svg width="205" height="205" viewBox="0 0 205 205" fill="none" xmlns="http://www.w3.org/2000/svg">
<g id="Group 3650">
<g id="Ellipse 10" filter="url(#filter0_d_86_2034)">
<circle cx="102.086" cy="102.086" r="83.3529" transform="rotate(-15 102.086 102.086)" fill="white" fill-opacity="0.5" shape-rendering="crispEdges"/>
</g>
<g id="Group 3649">
<path id="Icon" d="M101.949 106.359L99.4884 109.189C100.899 110.416 102.999 110.416 104.41 109.189L101.949 106.359ZM82.2912 109.554C84.2835 108.989 85.4399 106.915 84.8741 104.923C84.3083 102.93 82.2346 101.774 80.2423 102.34L82.2912 109.554ZM123.656 102.34C121.663 101.774 119.59 102.93 119.024 104.923C118.458 106.915 119.615 108.989 121.607 109.554L123.656 102.34ZM116.583 78.3834C116.583 80.4882 115.752 83.0917 114.163 86.028C112.601 88.9141 110.471 91.8236 108.265 94.4617C106.069 97.0873 103.862 99.3671 102.199 100.994C101.37 101.805 100.682 102.448 100.206 102.884C99.9678 103.102 99.783 103.268 99.6604 103.378C99.5991 103.432 99.5533 103.473 99.5243 103.498C99.5098 103.511 99.4994 103.52 99.4934 103.525C99.4904 103.528 99.4884 103.53 99.4876 103.53C99.4872 103.531 99.487 103.531 99.4871 103.531C99.4872 103.531 99.4875 103.53 99.4875 103.53C99.4879 103.53 99.4884 103.53 101.949 106.359C104.41 109.189 104.41 109.189 104.411 109.188C104.411 109.188 104.412 109.187 104.413 109.187C104.414 109.186 104.415 109.184 104.417 109.183C104.421 109.18 104.426 109.175 104.431 109.17C104.443 109.16 104.459 109.146 104.479 109.128C104.52 109.093 104.577 109.042 104.651 108.976C104.797 108.846 105.008 108.657 105.272 108.414C105.801 107.929 106.549 107.23 107.444 106.355C109.228 104.609 111.618 102.143 114.018 99.2734C116.407 96.4162 118.874 93.0811 120.759 89.5976C122.617 86.1643 124.083 82.2735 124.083 78.3834H116.583ZM101.949 106.359C104.41 103.53 104.41 103.53 104.411 103.53C104.411 103.53 104.411 103.531 104.411 103.531C104.411 103.531 104.411 103.531 104.41 103.53C104.41 103.53 104.408 103.528 104.405 103.525C104.399 103.52 104.388 103.511 104.374 103.498C104.345 103.473 104.299 103.432 104.238 103.378C104.115 103.268 103.93 103.102 103.692 102.884C103.216 102.448 102.528 101.805 101.699 100.994C100.036 99.3671 97.8294 97.0873 95.6334 94.4617C93.427 91.8236 91.2972 88.9141 89.7353 86.028C88.1463 83.0917 87.3148 80.4882 87.3148 78.3834H79.8148C79.8148 82.2735 81.2813 86.1643 83.1393 89.5976C85.0245 93.0811 87.4907 96.4162 89.8804 99.2734C92.2804 102.143 94.6697 104.609 96.4541 106.355C97.3487 107.23 98.0968 107.929 98.6259 108.414C98.8905 108.657 99.1007 108.846 99.2474 108.976C99.3208 109.042 99.3783 109.093 99.4188 109.128C99.4391 109.146 99.4551 109.16 99.4667 109.17C99.4725 109.175 99.4773 109.18 99.4809 109.183C99.4827 109.184 99.4842 109.186 99.4855 109.187C99.4861 109.187 99.4868 109.188 99.4871 109.188C99.4878 109.189 99.4884 109.189 101.949 106.359ZM87.3148 78.3834C87.3148 70.5991 93.7886 64.1488 101.949 64.1488V56.6488C89.8028 56.6488 79.8148 66.3024 79.8148 78.3834H87.3148ZM101.949 64.1488C110.109 64.1488 116.583 70.5991 116.583 78.3834H124.083C124.083 66.3024 114.095 56.6488 101.949 56.6488V64.1488ZM134.968 118.616C134.968 119.425 134.59 120.535 133.196 121.907C131.79 123.293 129.562 124.714 126.506 125.987C120.411 128.527 111.731 130.186 101.949 130.186V137.686C112.474 137.686 122.178 135.915 129.391 132.91C132.989 131.411 136.145 129.53 138.46 127.25C140.787 124.957 142.468 122.037 142.468 118.616H134.968ZM101.949 130.186C92.1671 130.186 83.487 128.527 77.3921 125.987C74.3364 124.714 72.1084 123.293 70.7017 121.907C69.3081 120.535 68.9305 119.425 68.9305 118.616H61.4305C61.4305 122.037 63.1107 124.957 65.4383 127.25C67.7527 129.53 70.9094 131.411 74.5075 132.91C81.7201 135.915 91.4243 137.686 101.949 137.686V130.186ZM68.9305 118.616C68.9305 117.619 69.5303 116.116 71.8716 114.311C74.1753 112.535 77.71 110.855 82.2912 109.554L80.2423 102.34C75.113 103.796 70.6047 105.818 67.2929 108.371C64.0187 110.894 61.4305 114.346 61.4305 118.616H68.9305ZM121.607 109.554C126.188 110.855 129.723 112.535 132.026 114.311C134.368 116.116 134.968 117.619 134.968 118.616H142.468C142.468 114.346 139.879 110.894 136.605 108.371C133.293 105.818 128.785 103.796 123.656 102.34L121.607 109.554Z" fill="#0658D3"/>
<path id="Ellipse 5" d="M107.799 78.3652C107.799 81.8266 104.993 84.6326 101.531 84.6326C98.0699 84.6326 95.2639 81.8266 95.2639 78.3652C95.2639 74.9038 98.0699 72.0978 101.531 72.0978C104.993 72.0978 107.799 74.9038 107.799 78.3652Z" fill="#0658D3"/>
</g>
</g>
<defs>
<filter id="filter0_d_86_2034" x="14.7124" y="18.7125" width="174.747" height="174.747" filterUnits="userSpaceOnUse" color-interpolation-filters="sRGB">
<feFlood flood-opacity="0" result="BackgroundImageFix"/>
<feColorMatrix in="SourceAlpha" type="matrix" values="0 0 0 0 0 0 0 0 0 0 0 0 0 0 0 0 0 0 127 0" result="hardAlpha"/>
<feOffset dy="4"/>
<feGaussianBlur stdDeviation="2"/>
<feComposite in2="hardAlpha" operator="out"/>
<feColorMatrix type="matrix" values="0 0 0 0 0 0 0 0 0 0 0 0 0 0 0 0 0 0 0.25 0"/>
<feBlend mode="normal" in2="BackgroundImageFix" result="effect1_dropShadow_86_2034"/>
<feBlend mode="normal" in="SourceGraphic" in2="effect1_dropShadow_86_2034" result="shape"/>
</filter>
</defs>
</svg>
