<svg width="205" height="205" viewBox="0 0 205 205" fill="none" xmlns="http://www.w3.org/2000/svg">
<g id="Group 3652">
<g id="Ellipse 11" filter="url(#filter0_d_86_2036)">
<circle cx="102.086" cy="102.086" r="83.3529" transform="rotate(-15 102.086 102.086)" fill="url(#paint0_linear_86_2036)" fill-opacity="0.5" shape-rendering="crispEdges"/>
</g>
<path id="Icon" d="M85.8125 128.769V88.6154M115.875 128.769V113.154M88.125 86.3846V77.4615C88.125 74.9975 90.1957 73 92.75 73H108.937C111.492 73 113.563 74.9975 113.563 77.4615V86.3846M115.875 97.5385H104.313V108.692V113.154H125.125V97.5385H115.875ZM115.875 97.5385V86.3846M115.875 86.3846H74.25C69.1414 86.3846 65 90.3796 65 95.3077V122.077C65 127.005 69.1414 131 74.25 131H129.75C134.859 131 139 127.005 139 122.077V95.3077C139 90.3796 134.859 86.3846 129.75 86.3846H115.875Z" stroke="#0658D3" stroke-width="7" stroke-linecap="round" stroke-linejoin="round"/>
</g>
<defs>
<filter id="filter0_d_86_2036" x="14.7125" y="18.7124" width="174.747" height="174.747" filterUnits="userSpaceOnUse" color-interpolation-filters="sRGB">
<feFlood flood-opacity="0" result="BackgroundImageFix"/>
<feColorMatrix in="SourceAlpha" type="matrix" values="0 0 0 0 0 0 0 0 0 0 0 0 0 0 0 0 0 0 127 0" result="hardAlpha"/>
<feOffset dy="4"/>
<feGaussianBlur stdDeviation="2"/>
<feComposite in2="hardAlpha" operator="out"/>
<feColorMatrix type="matrix" values="0 0 0 0 0 0 0 0 0 0 0 0 0 0 0 0 0 0 0.25 0"/>
<feBlend mode="normal" in2="BackgroundImageFix" result="effect1_dropShadow_86_2036"/>
<feBlend mode="normal" in="SourceGraphic" in2="effect1_dropShadow_86_2036" result="shape"/>
</filter>
<linearGradient id="paint0_linear_86_2036" x1="102.086" y1="18.7331" x2="102.086" y2="185.439" gradientUnits="userSpaceOnUse">
<stop stop-color="white"/>
<stop offset="1" stop-color="#EEEEEE" stop-opacity="0"/>
</linearGradient>
</defs>
</svg>
