<svg width="205" height="205" viewBox="0 0 205 205" fill="none" xmlns="http://www.w3.org/2000/svg">
<g id="Group 3651">
<g id="Ellipse 9" filter="url(#filter0_d_86_2035)">
<circle cx="102.086" cy="102.086" r="83.3529" transform="rotate(-15 102.086 102.086)" fill="url(#paint0_linear_86_2035)" fill-opacity="0.5" shape-rendering="crispEdges"/>
</g>
<path id="Icon" d="M73.4455 85.6144V103.894M125.151 85.6144V103.894M122.566 122.174H132.907C137.191 122.174 140.663 118.667 140.663 114.34V77.7801C140.663 73.4533 137.191 69.9458 132.907 69.9458H65.6897C61.4063 69.9458 57.9338 73.4533 57.9338 77.7801V114.34C57.9338 118.667 61.4063 122.174 65.6897 122.174H76.0308M84.6697 138.738L99.2943 153.511M99.2943 153.511L112.934 139.733M99.2943 153.511L99.2949 123.295M109.64 96.0601C109.64 101.829 105.01 106.506 99.2984 106.506C93.5871 106.506 88.9572 101.829 88.9572 96.0601C88.9572 90.2911 93.5871 85.6144 99.2984 85.6144C105.01 85.6144 109.64 90.2911 109.64 96.0601Z" stroke="#0658D3" stroke-width="7.5" stroke-linecap="round" stroke-linejoin="round"/>
</g>
<defs>
<filter id="filter0_d_86_2035" x="14.7124" y="18.7125" width="174.747" height="174.747" filterUnits="userSpaceOnUse" color-interpolation-filters="sRGB">
<feFlood flood-opacity="0" result="BackgroundImageFix"/>
<feColorMatrix in="SourceAlpha" type="matrix" values="0 0 0 0 0 0 0 0 0 0 0 0 0 0 0 0 0 0 127 0" result="hardAlpha"/>
<feOffset dy="4"/>
<feGaussianBlur stdDeviation="2"/>
<feComposite in2="hardAlpha" operator="out"/>
<feColorMatrix type="matrix" values="0 0 0 0 0 0 0 0 0 0 0 0 0 0 0 0 0 0 0.25 0"/>
<feBlend mode="normal" in2="BackgroundImageFix" result="effect1_dropShadow_86_2035"/>
<feBlend mode="normal" in="SourceGraphic" in2="effect1_dropShadow_86_2035" result="shape"/>
</filter>
<linearGradient id="paint0_linear_86_2035" x1="102.086" y1="18.7332" x2="102.086" y2="185.439" gradientUnits="userSpaceOnUse">
<stop stop-color="white"/>
<stop offset="1" stop-color="#EEEEEE" stop-opacity="0"/>
</linearGradient>
</defs>
</svg>
