<svg width="56" height="44" viewBox="0 0 56 44" fill="none" xmlns="http://www.w3.org/2000/svg">
<path id="Icon" d="M16.5672 40.6858V12.832M37.6087 40.6858V29.8537M18.1858 11.2846V5.09486C18.1858 3.38562 19.6351 2 21.4229 2H32.753C34.5408 2 35.9901 3.38562 35.9901 5.09486V11.2846M37.6087 19.0217H29.5158V26.7589V29.8537H44.083V19.0217H37.6087ZM37.6087 19.0217V11.2846M37.6087 11.2846H8.47431C4.89865 11.2846 2 14.0558 2 17.4743V36.0435C2 39.462 4.89865 42.2332 8.47431 42.2332H47.3202C50.8958 42.2332 53.7945 39.462 53.7945 36.0435V17.4743C53.7945 14.0558 50.8958 11.2846 47.3202 11.2846H37.6087Z" stroke="white" stroke-width="3" stroke-linecap="round" stroke-linejoin="round"/>
</svg>
