<svg width="13" height="12" viewBox="0 0 13 12" fill="none" xmlns="http://www.w3.org/2000/svg">
<g id="simple-line-icons:calender" clip-path="url(#clip0_1007_149)">
<path id="Vector" d="M1.35922 1.12432L4.45077 1.12433V0.376953C4.45077 0.169766 4.62355 0.00195312 4.83687 0.00195312C5.0502 0.00195312 5.22298 0.169766 5.22298 0.376953V1.12414H8.31182V0.376953C8.31182 0.169766 8.4846 0.00195312 8.69793 0.00195312C8.91125 0.00195312 9.08403 0.169766 9.08403 0.376953V1.12414H12.1702C12.5966 1.12414 12.9424 1.45995 12.9424 1.87414V11.2491C12.9424 11.6633 12.5966 11.9991 12.1702 11.9991H1.35922C0.932769 11.9991 0.587011 11.6633 0.587011 11.2491V1.87414C0.587011 1.46013 0.932769 1.12432 1.35922 1.12432ZM1.35922 11.2491H12.1702V1.87414H9.08403V2.25195C9.08403 2.45913 8.91125 2.62695 8.69793 2.62695C8.4846 2.62695 8.31182 2.45913 8.31182 2.25195V1.87433H5.22298V2.25214C5.22298 2.45933 5.0502 2.62714 4.83687 2.62714C4.62355 2.62714 4.45077 2.45933 4.45077 2.25214V1.87433H1.35922V11.2491ZM4.06196 5.99932H3.28975C3.07662 5.99932 2.90364 5.83132 2.90364 5.62432V4.87432C2.90364 4.66732 3.07662 4.49932 3.28975 4.49932H4.06196C4.27509 4.49932 4.44806 4.66732 4.44806 4.87432V5.62432C4.44806 5.83132 4.27509 5.99932 4.06196 5.99932ZM4.06196 8.99913H3.28975C3.07662 8.99913 2.90364 8.83132 2.90364 8.62413V7.87413C2.90364 7.66713 3.07662 7.49913 3.28975 7.49913H4.06196C4.27509 7.49913 4.44806 7.66713 4.44806 7.87413V8.62413C4.44806 8.8315 4.27509 8.99913 4.06196 8.99913ZM6.37859 7.49913H7.1508C7.36393 7.49913 7.53691 7.66713 7.53691 7.87413V8.62413C7.53691 8.83132 7.36393 8.99913 7.1508 8.99913H6.37859C6.16546 8.99913 5.99249 8.83132 5.99249 8.62413V7.87413C5.99249 7.66732 6.16546 7.49913 6.37859 7.49913ZM6.37859 4.49932H7.1508C7.36393 4.49932 7.53691 4.66732 7.53691 4.87432V5.62432C7.53691 5.83132 7.36393 5.99932 7.1508 5.99932H6.37859C6.16546 5.99932 5.99249 5.83132 5.99249 5.62432V4.87432C5.99249 4.66713 6.16546 4.49932 6.37859 4.49932ZM9.46743 4.49932H10.2396C10.4528 4.49932 10.6258 4.66732 10.6258 4.87432V5.62432C10.6258 5.83132 10.4528 5.99932 10.2396 5.99932H9.46743C9.2543 5.99932 9.08133 5.83132 9.08133 5.62432V4.87432C9.08133 4.66713 9.2543 4.49932 9.46743 4.49932ZM9.46743 7.49913H10.2396C10.4528 7.49913 10.6258 7.66713 10.6258 7.87413V8.62413C10.6258 8.83132 10.4528 8.99913 10.2396 8.99913H9.46743C9.2543 8.99913 9.08133 8.83132 9.08133 8.62413V7.87413C9.08133 7.66732 9.2543 7.49913 9.46743 7.49913Z" fill="#757575"/>
</g>
<defs>
<clipPath id="clip0_1007_149">
<rect width="12.3554" height="12" fill="white" transform="matrix(-1 0 0 1 12.9424 0)"/>
</clipPath>
</defs>
</svg>
