<svg width="69" height="69" viewBox="0 0 69 69" fill="none" xmlns="http://www.w3.org/2000/svg">
<path id="Icon" d="M66.6281 30.1875L60.375 23.9387V8.625C60.375 6.25312 58.4344 4.3125 56.0625 4.3125H51.75C49.3781 4.3125 47.4375 6.25312 47.4375 8.625V11.0098L38.8125 2.39344C37.6352 1.28081 36.5571 0 34.5 0C32.4429 0 31.3648 1.28081 30.1875 2.39344L2.37188 30.1875C1.02638 31.5891 0 32.6111 0 34.5C0 36.9279 1.863 38.8125 4.3125 38.8125H8.625V64.6875C8.625 67.0594 10.5656 69 12.9375 69H21.5625C23.9442 69 25.875 67.0692 25.875 64.6875V47.4375C25.875 45.0656 27.8156 43.125 30.1875 43.125H38.8125C41.1844 43.125 43.125 45.0656 43.125 47.4375V64.6875C43.125 67.0692 42.8995 69 45.2812 69H56.0625C58.4344 69 60.375 67.0594 60.375 64.6875V38.8125H64.6875C67.137 38.8125 69 36.9279 69 34.5C69 32.6111 67.9736 31.5891 66.6281 30.1875Z" fill="white"/>
</svg>
