<svg width="224" height="250" viewBox="0 0 224 250" fill="none" xmlns="http://www.w3.org/2000/svg">
<g id="Group 3597">
<g id="Group">
<path id="Vector" d="M3 52.3133C26.9056 77.0228 49.5447 93.1789 65.5345 103.211C68.8591 105.322 130.655 147.35 173.875 134.203C179.838 132.408 190.34 127.867 199.522 116.832C200.208 116.04 205.855 107.17 208.44 105.006C212.187 101.891 216.989 103.527 221 104.267C218.731 103.316 216.514 100.201 215.195 97.2444C213.77 94.1293 214.298 90.6974 212.557 88.1103C209.601 83.7281 205.221 82.0386 201.263 81.5106C185.643 79.5043 173.769 88.3215 168.439 93.8125C163.373 99.0395 163.584 102.524 163.69 103.58C163.743 104.108 164.007 106.009 165.379 107.276C168.439 110.074 173.98 111.5 177.674 106.431C183.69 98.1947 177.78 72.2181 168.545 55.5868C148.386 19.3146 105.535 7.17104 85.5877 3C92.5008 10.5501 110.232 30.2438 124.375 50.4654C127.33 54.6892 131.921 61.4474 133.504 71.215C134.085 74.858 135.51 83.7281 131.816 90.9614C124.85 104.583 101.63 108.332 86.4321 103.95C64.6901 97.6668 48.9114 71.5846 48.9642 39.2722" stroke="#0658D3" stroke-width="6" stroke-linecap="round" stroke-linejoin="round"/>
<path id="Vector_2" d="M64.479 77.8676C70.9699 78.1844 88.3318 78.1316 103.952 66.4105C109.546 62.1866 113.504 57.5404 116.248 53.5806" stroke="#0658D3" stroke-width="6" stroke-linecap="round" stroke-linejoin="round"/>
</g>
<g id="Group_2">
<path id="Vector_3" d="M120.417 236.261L85.8515 232.301C79.6772 231.615 76.0887 224.962 78.8856 219.418L108.068 161.077C110.496 156.219 115.667 153.421 121.05 154.054L152.872 157.697C159.046 158.384 162.634 165.036 159.837 170.58L129.388 231.403C127.699 234.73 124.111 236.683 120.417 236.261Z" stroke="#0658D3" stroke-width="6" stroke-linecap="round" stroke-linejoin="round"/>
<path id="Vector_4" d="M79.4134 228.394L70.7588 213.135C68.9118 209.281 68.3313 206.219 70.0728 202.787C79.0968 184.783 85.6405 169.419 94.6644 151.415C98.0418 144.656 104.849 140.538 111.762 141.066L134.296 142.861C141.156 143.389 146.961 147.191 151.816 151.995C155.721 155.85 159.574 161.499 159.204 161.499L157.938 159.44" stroke="#0658D3" stroke-width="6" stroke-linecap="round" stroke-linejoin="round"/>
<path id="Vector_5" d="M96.1421 214.983L115.931 175.385" stroke="#0658D3" stroke-width="6" stroke-linecap="round" stroke-linejoin="round"/>
<path id="Vector_6" d="M109.493 214.983L129.283 175.385" stroke="#0658D3" stroke-width="6" stroke-linecap="round" stroke-linejoin="round"/>
<path id="Vector_7" d="M123.161 214.983L142.951 175.385" stroke="#0658D3" stroke-width="6" stroke-linecap="round" stroke-linejoin="round"/>
<path id="Vector_8" d="M86.5 244C88.9853 244 91 241.985 91 239.5C91 237.015 88.9853 235 86.5 235C84.0147 235 82 237.015 82 239.5C82 241.985 84.0147 244 86.5 244Z" stroke="#0658D3" stroke-width="6" stroke-linecap="round" stroke-linejoin="round"/>
<path id="Vector_9" d="M115.5 247C117.985 247 120 244.985 120 242.5C120 240.015 117.985 238 115.5 238C113.015 238 111 240.015 111 242.5C111 244.985 113.015 247 115.5 247Z" stroke="#0658D3" stroke-width="6" stroke-linecap="round" stroke-linejoin="round"/>
<path id="Vector_10" d="M120.417 147.613L132.08 124.329" stroke="#0658D3" stroke-width="6" stroke-linecap="round" stroke-linejoin="round"/>
<path id="Vector_11" d="M134.243 149.197L145.906 125.861" stroke="#0658D3" stroke-width="6" stroke-linecap="round" stroke-linejoin="round"/>
<path id="Vector_12" d="M126.275 122.904L151.236 125.755" stroke="#0658D3" stroke-width="6" stroke-linecap="round" stroke-linejoin="round"/>
</g>
</g>
</svg>
