<?xml version="1.0" encoding="UTF-8"?>
<!DOCTYPE svg PUBLIC "-//W3C//DTD SVG 1.1//EN" "http://www.w3.org/Graphics/SVG/1.1/DTD/svg11.dtd">
<svg xmlns="http://www.w3.org/2000/svg" version="1.1" width="470px" height="65px" style="shape-rendering:geometricPrecision; text-rendering:geometricPrecision; image-rendering:optimizeQuality; fill-rule:evenodd; clip-rule:evenodd" xmlns:xlink="http://www.w3.org/1999/xlink">
<g><path style="opacity:0.966" fill="#0658d3" d="M 16.5,-0.5 C 20.5,-0.5 24.5,-0.5 28.5,-0.5C 26.5,8.16667 24.5,16.8333 22.5,25.5C 29.5,25.5 36.5,25.5 43.5,25.5C 45.5017,16.827 47.5017,8.16036 49.5,-0.5C 53.8333,-0.5 58.1667,-0.5 62.5,-0.5C 56.9894,21.209 51.3228,42.8757 45.5,64.5C 41.1667,64.5 36.8333,64.5 32.5,64.5C 35.0876,55.3171 37.7543,46.1505 40.5,37C 33.1742,36.5003 25.8409,36.3337 18.5,36.5C 16.4807,45.9107 14.1473,55.2441 11.5,64.5C 7.5,64.5 3.5,64.5 -0.5,64.5C -0.5,62.8333 -0.5,61.1667 -0.5,59.5C 5.14869,39.5828 10.8154,19.5828 16.5,-0.5 Z"/></g>
<g><path style="opacity:0.965" fill="#0658d3" d="M 91.5,-0.5 C 99.1667,-0.5 106.833,-0.5 114.5,-0.5C 113.632,21.2505 112.299,42.9172 110.5,64.5C 106.167,64.5 101.833,64.5 97.5,64.5C 98.3858,57.8745 99.0524,51.2078 99.5,44.5C 92.4684,44.1697 85.4684,44.503 78.5,45.5C 75.545,51.7395 72.8784,58.0729 70.5,64.5C 66.1667,64.5 61.8333,64.5 57.5,64.5C 66.1024,44.6254 75.2691,24.9587 85,5.5C 86.4936,2.68648 88.6603,0.686482 91.5,-0.5 Z M 94.5,9.5 C 97.1667,9.5 99.8333,9.5 102.5,9.5C 101.613,17.4761 100.946,25.4761 100.5,33.5C 95.1254,33.8282 89.7921,33.4948 84.5,32.5C 88.1206,24.9286 91.454,17.262 94.5,9.5 Z"/></g>
<g><path style="opacity:0.968" fill="#0658d3" d="M 145.5,-0.5 C 159.167,-0.5 172.833,-0.5 186.5,-0.5C 180.368,21.0283 174.701,42.695 169.5,64.5C 165.167,64.5 160.833,64.5 156.5,64.5C 161.324,46.2022 165.991,27.8688 170.5,9.5C 163.5,9.5 156.5,9.5 149.5,9.5C 144.676,27.7971 140.009,46.1304 135.5,64.5C 131.167,64.5 126.833,64.5 122.5,64.5C 127.662,45.185 132.829,25.8517 138,6.5C 139.742,3.25432 142.242,0.920984 145.5,-0.5 Z"/></g>
<g><path style="opacity:0.952" fill="#0658d3" d="M 200.5,-0.5 C 214.833,-0.5 229.167,-0.5 243.5,-0.5C 242.785,5.15166 240.618,10.1517 237,14.5C 225.283,27.4283 213.45,40.2616 201.5,53C 211.167,53.3333 220.833,53.6667 230.5,54C 229.269,57.4228 228.269,60.9228 227.5,64.5C 212.833,64.5 198.167,64.5 183.5,64.5C 184.016,61.1012 184.85,57.7679 186,54.5C 199.5,39.6667 213,24.8333 226.5,10C 217.173,9.50021 207.839,9.33355 198.5,9.5C 198.851,6.0968 199.518,2.76346 200.5,-0.5 Z"/></g>
<g><path style="opacity:0.965" fill="#0658d3" d="M 258.5,-0.5 C 273.167,-0.5 287.833,-0.5 302.5,-0.5C 299.062,2.43468 295.729,5.60135 292.5,9C 284.507,9.49971 276.507,9.66638 268.5,9.5C 267.326,14.53 265.992,19.53 264.5,24.5C 272.138,25.4975 279.804,25.8308 287.5,25.5C 286.992,29.1974 286.326,32.8641 285.5,36.5C 277.472,36.169 269.472,36.5023 261.5,37.5C 258.694,46.391 256.361,55.391 254.5,64.5C 250.167,64.5 245.833,64.5 241.5,64.5C 247.011,42.7902 252.677,21.1236 258.5,-0.5 Z"/></g>
<g><path style="opacity:0.961" fill="#0658d3" d="M 314.5,-0.5 C 326.5,-0.5 338.5,-0.5 350.5,-0.5C 352.828,1.16612 353.828,3.49945 353.5,6.5C 351.962,15.3201 349.795,23.9867 347,32.5C 344.685,36.8168 341.185,39.6502 336.5,41C 339.201,48.6388 341.201,56.4721 342.5,64.5C 337.833,64.5 333.167,64.5 328.5,64.5C 327.309,56.7336 325.642,49.067 323.5,41.5C 319.893,40.5108 316.226,40.1774 312.5,40.5C 311.107,48.6739 309.107,56.6739 306.5,64.5C 302.5,64.5 298.5,64.5 294.5,64.5C 297.982,48.8847 301.982,33.3847 306.5,18C 309.145,15.3551 311.812,12.6884 314.5,10C 311.167,9.66667 307.833,9.33333 304.5,9C 307.729,5.60135 311.062,2.43468 314.5,-0.5 Z M 321.5,9.5 C 327.868,9.17033 334.202,9.50367 340.5,10.5C 338.674,16.8036 337.008,23.1369 335.5,29.5C 329.167,29.5 322.833,29.5 316.5,29.5C 317.857,22.7398 319.523,16.0731 321.5,9.5 Z"/></g>
<g><path style="opacity:0.955" fill="#0658d3" d="M 370.5,-0.5 C 385.167,-0.5 399.833,-0.5 414.5,-0.5C 411.667,3.16516 408.334,6.33183 404.5,9C 396.507,9.49971 388.507,9.66638 380.5,9.5C 379.659,14.5322 378.659,19.5322 377.5,24.5C 384.833,24.5 392.167,24.5 399.5,24.5C 398.833,28.1667 398.167,31.8333 397.5,35.5C 389.826,35.3336 382.159,35.5003 374.5,36C 372.605,41.4081 370.939,46.9081 369.5,52.5C 378.475,53.4982 387.475,53.8315 396.5,53.5C 395.674,57.1359 395.008,60.8026 394.5,64.5C 381.167,64.5 367.833,64.5 354.5,64.5C 359.675,42.8002 365.008,21.1335 370.5,-0.5 Z"/></g>
<g><path style="opacity:0.952" fill="#0658d3" d="M 425.5,-0.5 C 440.167,-0.5 454.833,-0.5 469.5,-0.5C 469.5,-0.166667 469.5,0.166667 469.5,0.5C 465.746,2.74763 462.412,5.58096 459.5,9C 451.068,8.88002 442.901,9.71336 435,11.5C 433.933,15.5349 432.766,19.5349 431.5,23.5C 439.145,24.3315 446.812,24.8315 454.5,25C 453.427,28.1203 452.427,31.2869 451.5,34.5C 443.833,35.1667 436.167,35.8333 428.5,36.5C 426.751,41.9998 425.085,47.4998 423.5,53C 432.833,53.3333 442.167,53.6667 451.5,54C 450.269,57.4228 449.269,60.9228 448.5,64.5C 435.167,64.5 421.833,64.5 408.5,64.5C 413.961,42.784 419.627,21.1173 425.5,-0.5 Z"/></g>
</svg>
