<svg width="258" height="259" viewBox="0 0 258 259" fill="none" xmlns="http://www.w3.org/2000/svg">
<g id="Group 3664">
<g id="Rectangle 187" filter="url(#filter0_d_173_781)">
<rect x="4" width="250" height="250" rx="50" fill="#EDEDED"/>
</g>
<path id="Vector" d="M169.973 176.233L157.206 118.072L182.031 93.2474C192.67 82.6082 196.216 68.4227 192.67 61.3299C185.577 57.7835 171.392 61.3299 160.753 71.9691L135.928 96.7938L77.767 84.0268C74.2206 83.3175 71.3835 84.7361 69.9649 87.5732L67.8371 91.1196C66.4186 94.666 67.1278 98.2124 69.9649 100.34L107.557 125.165L93.3711 146.443H72.0928L65 153.536L86.2784 167.722L100.464 189L107.557 181.907V160.629L128.835 146.443L153.66 184.035C155.788 186.872 159.334 187.581 162.88 186.163L166.427 184.744C169.264 182.616 170.682 179.779 169.973 176.233Z" fill="#0658D3"/>
</g>
<defs>
<filter id="filter0_d_173_781" x="0" y="0" width="258" height="259" filterUnits="userSpaceOnUse" color-interpolation-filters="sRGB">
<feFlood flood-opacity="0" result="BackgroundImageFix"/>
<feColorMatrix in="SourceAlpha" type="matrix" values="0 0 0 0 0 0 0 0 0 0 0 0 0 0 0 0 0 0 127 0" result="hardAlpha"/>
<feOffset dy="5"/>
<feGaussianBlur stdDeviation="2"/>
<feComposite in2="hardAlpha" operator="out"/>
<feColorMatrix type="matrix" values="0 0 0 0 0 0 0 0 0 0 0 0 0 0 0 0 0 0 0.25 0"/>
<feBlend mode="normal" in2="BackgroundImageFix" result="effect1_dropShadow_173_781"/>
<feBlend mode="normal" in="SourceGraphic" in2="effect1_dropShadow_173_781" result="shape"/>
</filter>
</defs>
</svg>
