<svg width="157" height="113" viewBox="0 0 157 113" fill="none" xmlns="http://www.w3.org/2000/svg">
<g id="Group 3713">
<g id="Icon">
<path d="M31.9631 75.1585C21.5522 75.1585 12.9414 83.0696 11.5252 93.3548C11.2992 94.9961 9.9779 96.3466 8.32105 96.3466H4C2.34315 96.3466 1 95.0035 1 93.3466V4C1 2.34314 2.34315 1 4 1H88.7745C90.4313 1 91.7745 2.34315 91.7745 4V93.3466C91.7745 95.0035 90.4313 96.3466 88.7745 96.3466H55.6052C53.9484 96.3466 52.627 94.9961 52.401 93.3548C50.9849 83.0696 42.3741 75.1585 31.9631 75.1585Z" fill="#0658D3"/>
<path d="M124.853 75.1585C114.442 75.1585 105.831 83.0696 104.415 93.3548C104.189 94.9961 102.867 96.3466 101.21 96.3466H96.3892C94.7323 96.3466 93.3892 95.0035 93.3892 93.3466V30.4852C93.3892 28.8283 94.7323 27.4852 96.3892 27.4852H123.75C124.462 27.4852 125.15 27.7384 125.693 28.1997L154.943 53.0719C155.614 53.6419 156 54.4774 156 55.3573V93.3466C156 95.0035 154.657 96.3466 153 96.3466H148.495C146.838 96.3466 145.516 94.9961 145.29 93.3548C143.874 83.0696 135.263 75.1585 124.853 75.1585Z" fill="#0658D3"/>
<path d="M31.9631 75.1585C21.5522 75.1585 12.9414 83.0696 11.5252 93.3548C11.2992 94.9961 9.9779 96.3466 8.32105 96.3466H4C2.34315 96.3466 1 95.0035 1 93.3466V4C1 2.34314 2.34315 1 4 1H88.7745C90.4313 1 91.7745 2.34315 91.7745 4V93.3466C91.7745 95.0035 90.4313 96.3466 88.7745 96.3466H55.6052C53.9484 96.3466 52.627 94.9961 52.401 93.3548C50.9849 83.0696 42.3741 75.1585 31.9631 75.1585Z" stroke="white" stroke-width="2" stroke-linecap="round" stroke-linejoin="round"/>
<path d="M124.853 75.1585C114.442 75.1585 105.831 83.0696 104.415 93.3548C104.189 94.9961 102.867 96.3466 101.21 96.3466H96.3892C94.7323 96.3466 93.3892 95.0035 93.3892 93.3466V30.4852C93.3892 28.8283 94.7323 27.4852 96.3892 27.4852H123.75C124.462 27.4852 125.15 27.7384 125.693 28.1997L154.943 53.0719C155.614 53.6419 156 54.4774 156 55.3573V93.3466C156 95.0035 154.657 96.3466 153 96.3466H148.495C146.838 96.3466 145.516 94.9961 145.29 93.3548C143.874 83.0696 135.263 75.1585 124.853 75.1585Z" stroke="white" stroke-width="2" stroke-linecap="round" stroke-linejoin="round"/>
</g>
<circle id="Ellipse 3" cx="32.2799" cy="96.0679" r="16.5602" fill="#0658D3"/>
<circle id="Ellipse 4" cx="124.281" cy="96.0679" r="16.5602" fill="#0658D3"/>
</g>
</svg>
