<svg width="185" height="168" viewBox="0 0 185 168" fill="none" xmlns="http://www.w3.org/2000/svg">
<g id="Group 3663">
<path id="Icon" d="M112.958 153.021C112.958 150.812 111.167 149.021 108.958 149.021C106.749 149.021 104.958 150.812 104.958 153.021H112.958ZM104.958 163.657C104.958 165.866 106.749 167.657 108.958 167.657C111.167 167.657 112.958 165.866 112.958 163.657H104.958ZM161.833 163.657C161.833 165.866 163.624 167.657 165.833 167.657C168.042 167.657 169.833 165.866 169.833 163.657H161.833ZM124.333 67.9304C124.333 65.7213 122.542 63.9304 120.333 63.9304C118.124 63.9304 116.333 65.7213 116.333 67.9304H124.333ZM116.333 131.748C116.333 133.957 118.124 135.748 120.333 135.748C122.542 135.748 124.333 133.957 124.333 131.748H116.333ZM154.667 67.9304C154.667 65.7213 152.876 63.9304 150.667 63.9304C148.458 63.9304 146.667 65.7213 146.667 67.9304H154.667ZM146.667 131.748C146.667 133.957 148.458 135.748 150.667 135.748C152.876 135.748 154.667 133.957 154.667 131.748H146.667ZM104.958 153.021V163.657H112.958V153.021H104.958ZM161.833 153.021V163.657H169.833V153.021H161.833ZM116.333 67.9304V131.748H124.333V67.9304H116.333ZM146.667 67.9304V131.748H154.667V67.9304H146.667ZM177 60.8395V138.839H185V60.8395H177ZM165.833 149.021H105.167V157.021H165.833V149.021ZM94 138.839V60.8395H86V138.839H94ZM105.167 149.021C98.7422 149.021 94 144.214 94 138.839H86C86 149.129 94.8385 157.021 105.167 157.021V149.021ZM177 138.839C177 144.214 172.258 149.021 165.833 149.021V157.021C176.162 157.021 185 149.129 185 138.839H177ZM165.833 50.6576C172.258 50.6576 177 55.4649 177 60.8395H185C185 50.5493 176.162 42.6576 165.833 42.6576V50.6576ZM105.167 42.6576C94.8384 42.6576 86 50.5493 86 60.8395H94C94 55.4649 98.7423 50.6576 105.167 50.6576V42.6576ZM124.531 8H147.062V0H124.531V8ZM147.062 8C148.58 8 149.5 9.13227 149.5 10.1538H157.5C157.5 4.37807 152.655 0 147.062 0V8ZM122.094 10.1538C122.094 9.13227 123.013 8 124.531 8V0C118.939 0 114.094 4.37807 114.094 10.1538H122.094ZM105.167 50.6576H118.094V42.6576H105.167V50.6576ZM114.094 10.1538V46.6576H122.094V10.1538H114.094ZM118.094 50.6576H153.5V42.6576H118.094V50.6576ZM153.5 50.6576H165.833V42.6576H153.5V50.6576ZM149.5 10.1538V46.6576H157.5V10.1538H149.5Z" fill="#0658D3"/>
<g id="Icon_2">
<path d="M4 98.423C4 91.6257 9.76433 86.1153 16.875 86.1153H74.8125H94.125C101.236 86.1153 107 91.6257 107 98.423V135.346C107 142.143 101.236 147.654 94.125 147.654H16.875C9.76433 147.654 4 142.143 4 135.346V98.423Z" fill="white"/>
<path d="M32.9687 144.577V89.1923M74.8125 144.577V123.038M36.1875 86.1153V73.8077C36.1875 70.409 39.0697 67.6538 42.625 67.6538H65.1562C68.7116 67.6538 71.5938 70.409 71.5938 73.8077V86.1153M74.8125 101.5H58.7188V116.885V123.038H87.6875V101.5H74.8125ZM74.8125 101.5V86.1153M74.8125 86.1153H16.875C9.76433 86.1153 4 91.6257 4 98.423V135.346C4 142.143 9.76433 147.654 16.875 147.654H94.125C101.236 147.654 107 142.143 107 135.346V98.423C107 91.6257 101.236 86.1153 94.125 86.1153H74.8125Z" stroke="#0658D3" stroke-width="8" stroke-linecap="round" stroke-linejoin="round"/>
</g>
</g>
</svg>
