<svg width="240" height="50" viewBox="0 0 240 50" fill="none" xmlns="http://www.w3.org/2000/svg">
<g id="Group 3595">
<g id="Group">
<path id="Vector" d="M1 10.8971C5.83118 15.8562 10.4064 19.0987 13.6379 21.112C14.3097 21.5359 26.7983 29.9706 35.5328 27.3321C36.7379 26.9718 38.8602 26.0605 40.7159 23.8459C40.8546 23.6869 41.9957 21.9067 42.5183 21.4723C43.2755 20.8471 44.246 21.1756 45.0565 21.3239C44.5979 21.1332 44.15 20.508 43.8834 19.9146C43.5954 19.2894 43.7021 18.6006 43.3501 18.0814C42.7529 17.2019 41.8677 16.8628 41.0679 16.7569C37.9111 16.3542 35.5115 18.1238 34.4343 19.2258C33.4105 20.2749 33.4531 20.9742 33.4745 21.1862C33.4851 21.2921 33.5385 21.6736 33.8158 21.9279C34.4343 22.4895 35.5541 22.7756 36.3007 21.7584C37.5165 20.1053 36.322 14.8919 34.4556 11.554C30.3817 4.27429 21.7218 1.83712 17.6905 1C19.0876 2.51529 22.671 6.46775 25.5292 10.5262C26.1264 11.3739 27.0542 12.7302 27.3742 14.6906C27.4915 15.4217 27.7794 17.2019 27.0329 18.6536C25.6251 21.3875 20.9326 22.1398 17.8611 21.2603C13.4672 19.9994 10.2784 14.7647 10.2891 8.27974" stroke="white" stroke-linecap="round" stroke-linejoin="round"/>
<path id="Vector_2" d="M13.4246 16.0257C14.7363 16.0893 18.2451 16.0787 21.4019 13.7263C22.5323 12.8786 23.3322 11.9461 23.8868 11.1514" stroke="white" stroke-linecap="round" stroke-linejoin="round"/>
</g>
<g id="Group_2">
<path id="Vector_3" d="M24.7293 47.815L17.7438 47.0203C16.496 46.8825 15.7708 45.5474 16.336 44.4348L22.2337 32.7257C22.7243 31.7509 23.7694 31.1893 24.8572 31.3164L31.2881 32.0476C32.5359 32.1853 33.2611 33.5205 32.6959 34.6331L26.5423 46.8402C26.201 47.5077 25.4758 47.8998 24.7293 47.815Z" stroke="white" stroke-linecap="round" stroke-linejoin="round"/>
<path id="Vector_4" d="M16.4427 46.2363L14.6937 43.1739C14.3204 42.4004 14.2031 41.7858 14.555 41.097C16.3787 37.4836 17.7011 34.4001 19.5248 30.7867C20.2074 29.4303 21.5832 28.6038 22.9803 28.7098L27.5341 29.0701C28.9206 29.176 30.0937 29.939 31.0749 30.9032C31.8641 31.6768 32.6426 32.8106 32.568 32.8106L32.312 32.3973" stroke="white" stroke-linecap="round" stroke-linejoin="round"/>
<path id="Vector_5" d="M19.8234 43.5445L23.8227 35.5972" stroke="white" stroke-linecap="round" stroke-linejoin="round"/>
<path id="Vector_6" d="M22.5217 43.5445L26.521 35.5972" stroke="white" stroke-linecap="round" stroke-linejoin="round"/>
<path id="Vector_7" d="M25.2839 43.5445L29.2832 35.5972" stroke="white" stroke-linecap="round" stroke-linejoin="round"/>
<path id="Vector_8" d="M17.7332 49.0228C18.1455 49.0228 18.4797 48.6907 18.4797 48.2811C18.4797 47.8714 18.1455 47.5393 17.7332 47.5393C17.3209 47.5393 16.9866 47.8714 16.9866 48.2811C16.9866 48.6907 17.3209 49.0228 17.7332 49.0228Z" stroke="white" stroke-linecap="round" stroke-linejoin="round"/>
<path id="Vector_9" d="M23.2682 49.3197C23.6805 49.3197 24.0147 48.9876 24.0147 48.5779C24.0147 48.1683 23.6805 47.8362 23.2682 47.8362C22.8559 47.8362 22.5217 48.1683 22.5217 48.5779C22.5217 48.9876 22.8559 49.3197 23.2682 49.3197Z" stroke="white" stroke-linecap="round" stroke-linejoin="round"/>
<path id="Vector_10" d="M24.7292 30.0236L27.0862 25.3506" stroke="white" stroke-linecap="round" stroke-linejoin="round"/>
<path id="Vector_11" d="M27.5235 30.3413L29.8804 25.6577" stroke="white" stroke-linecap="round" stroke-linejoin="round"/>
<path id="Vector_12" d="M25.9131 25.0645L30.9576 25.6367" stroke="white" stroke-linecap="round" stroke-linejoin="round"/>
</g>
<path id="Vector_13" d="M24.343 47.6858H186.846" stroke="white" stroke-width="0.75" stroke-miterlimit="10"/>
<path id="Vector_14" d="M23.4451 49.4814H230.838" stroke="white" stroke-miterlimit="10"/>
<g id="Group_3">
<path id="Vector_15" d="M55.2382 18.9561L52.2903 30.1622H61.5504L64.4982 18.9561H69.3614L62.1832 46.2582H57.3201L60.4511 34.339H51.1911L48.06 46.2582H43.1968L50.375 18.9561H55.2382Z" fill="white"/>
<path id="Vector_16" d="M84.9484 37.9046H75.8992L72.0836 46.2582H67.0862L78.2459 22.7593C79.3602 20.3483 81.0485 18.9561 83.4121 18.9561H90.9757L89.3718 46.2582H84.2731L84.9484 37.9046ZM85.2861 33.7278L86.1471 23.1329H82.6355L77.79 33.7278H85.2861Z" fill="white"/>
<path id="Vector_17" d="M105.751 23.1329L99.3999 46.2582H94.3884L100.705 23.2687C101.471 20.4502 103.698 18.9561 106.656 18.9561H121.691L114.191 46.2582H109.179L115.531 23.1329H105.751Z" fill="white"/>
<path id="Vector_18" d="M142.839 24.9326L127.457 42.0814H139.911L138.794 46.2582H120.553L121.517 42.6587L138.981 23.1329H126.729L127.846 18.9561H145.58L144.988 21.1633C144.649 22.4198 143.871 23.846 142.822 24.9326H142.839Z" fill="white"/>
<path id="Vector_19" d="M169.469 18.9561L164.834 23.1329H155.364L153.479 30.264H163.35L162.25 34.4409H152.379L149.278 46.2582H144.442L151.629 18.9561H169.469Z" fill="white"/>
<path id="Vector_20" d="M174.532 36.0709L171.912 46.2582H167.194L172.205 26.7324L176.126 23.1329H171.245L175.866 18.9561H187.742C190.508 18.9561 191.565 20.4162 190.882 23.0989L188.718 31.5205C188.084 33.9655 186.408 35.7313 184.016 36.0369L186.571 46.2582H181.332L179.071 36.0709H174.548H174.532ZM177.85 23.1329L175.605 31.894H183.903L186.148 23.1329H177.85Z" fill="white"/>
<path id="Vector_21" d="M199.407 18.9561H217.248L212.613 23.1329H203.142L201.358 29.9245H210.896L209.795 34.1013H200.258L198.157 42.0814H209.662L208.561 46.2582H192.221L199.407 18.9561Z" fill="white"/>
<path id="Vector_22" d="M222.159 18.9561H240L235.365 23.1329H225.894L224.11 29.9245H233.647L232.547 34.1013H223.01L220.909 42.0814H232.414L231.313 46.2582H214.973L222.159 18.9561Z" fill="white"/>
</g>
</g>
</svg>
